<?xml version="1.0" encoding="utf-8"?>
<!-- Generator: Adobe Illustrator 24.1.0, SVG Export Plug-In . SVG Version: 6.00 Build 0)  -->
<svg version="1.1" id="Layer_1" xmlns="http://www.w3.org/2000/svg" xmlns:xlink="http://www.w3.org/1999/xlink" x="0px" y="0px"
	 viewBox="0 0 472.5 146.6" style="enable-background:new 0 0 472.5 146.6;" xml:space="preserve">
<style type="text/css">
	.st0{fill:#164B91;}
	.st1{fill:#6D6E71;}
	.st2{fill:#FFB31A;}
	.st3{fill:#FFFFFF;}
	.st4{fill:#0047B3;}
	.st5{fill:#098C8C;}
	.st6{fill:#FFAB00;}
</style>
<g>
	<path class="st3" d="M130.3,0h16.4v105.9c0,9-7.3,16.4-16.4,16.4h0V0z"/>
	<g>
		<path class="st3" d="M158.8,96.7V25.7h16.4v71.1H158.8z M158.4,19.3V0h17.2v19.3H158.4z"/>
	</g>
	<g>
		<path class="st3" d="M219.9,97.8c-10.2,0-18.7-3.6-25.1-10.8c-6.2-7-9.4-15.6-9.4-25.8c0-10.2,3.1-18.8,9.3-25.8
			c6.5-7.2,15.2-10.8,25.8-10.8c7.5,0,13.9,2.1,19,6.2v-5.2H256v71.1h-16.4v-5.1C234.4,95.7,227.8,97.8,219.9,97.8z M221.2,40.1
			c-5.9,0-10.6,2-14.2,6.1c-3.5,3.9-5.2,8.8-5.2,15c0,6.2,1.7,11.1,5.2,15c3.6,4.1,8.3,6.1,14.2,6.1c6,0,10.5-2,13.9-6
			c3.4-4,5-8.9,5-15.1c0-6.2-1.6-11.1-5-15.1C231.7,42.1,227.2,40.1,221.2,40.1z"/>
	</g>
	<g>
		<path class="st3" d="M297,97.8c-9.4,0-17-2.4-22.6-7.2c-5.3-4.3-8.3-10.1-8.6-17.2l-0.2-3.6h16.6l0.3,3c0.5,4.6,2.9,7.5,7.8,9.1
			c1.8,0.6,3.7,0.9,5.5,0.9c2,0,3.9-0.1,5.7-0.4c1.6-0.2,3.2-0.6,4.8-1.2c3.5-1.4,4-3.4,4-5.2c0-1.5-0.5-2.5-1.7-3.3
			c-1.8-1.2-4.1-2.2-7-3c-3.1-0.9-6.5-1.7-10.1-2.4c-3.9-0.8-7.6-1.8-11-3.2c-3.6-1.5-6.7-3.5-9.1-6.1c-2.7-2.9-4.1-6.8-4.1-11.6
			c0-6.9,2.6-12.4,7.7-16.3c4.8-3.7,11.8-5.5,20.9-5.5c8.7,0,15.7,2.2,20.8,6.4c4.5,3.7,7.1,8.7,7.8,14.8l0.4,3.8h-16.5l-0.4-2.9
			c-0.2-1.9-0.9-7.1-12.8-7.1c-11.5,0-11.5,4.3-11.5,5.9c0,1.4,0.5,2.3,1.6,3c1.8,1.1,4.2,2.1,7,2.9c3.1,0.8,6.5,1.6,10.1,2.3
			c3.9,0.8,7.6,1.9,11,3.3c3.6,1.5,6.7,3.6,9.1,6.3c2.7,2.9,4,6.9,4,11.8c0,7.4-2.9,13.1-8.5,17.1C312.8,95.9,305.7,97.8,297,97.8z"
			/>
	</g>
	<g>
		<path class="st3" d="M368.5,97.8c-10.2,0-18.7-3.6-25.1-10.8c-6.2-7-9.4-15.6-9.4-25.8c0-10.2,3.1-18.8,9.3-25.8
			c6.5-7.2,15.2-10.8,25.8-10.8c7.5,0,13.9,2.1,19,6.2v-5.2h16.4v71.1h-16.4v-5.1C382.9,95.7,376.3,97.8,368.5,97.8z M369.8,40.1
			c-5.9,0-10.6,2-14.2,6.1c-3.5,3.9-5.2,8.8-5.2,15c0,6.2,1.7,11.1,5.2,15c3.6,4.1,8.3,6.1,14.2,6.1c6,0,10.5-2,13.9-6
			c3.4-4,5-8.9,5-15.1c0-6.2-1.6-11.1-5-15.1C380.3,42.1,375.7,40.1,369.8,40.1z"/>
	</g>
	<g>
		<polygon class="st3" points="415,96.7 415,83 449.7,41.3 415.6,41.3 415.6,25.7 472.5,25.7 472.5,39.3 437.7,81 472.5,81 
			472.5,96.7 		"/>
	</g>
</g>
<g>
	<g>
		<rect x="24.4" y="105.9" class="st2" width="48.9" height="16.3"/>
	</g>
	<g>
		<polygon class="st2" points="32.6,130.3 65.2,130.3 48.9,146.6 		"/>
	</g>
	<path class="st2" d="M81.5,0H16.3C7.3,0,0,7.3,0,16.3v65.2c0,9,7.3,16.3,16.3,16.3h0V81.5V16.3h65.2v65.2H32.6L16.3,97.8h65.2
		c9,0,16.3-7.3,16.3-16.3V16.3C97.8,7.3,90.5,0,81.5,0z"/>
</g>
</svg>
